<?xml version="1.0" standalone="no"?>
<!DOCTYPE svg PUBLIC "-//W3C//DTD SVG 20010904//EN"
 "http://www.w3.org/TR/2001/REC-SVG-20010904/DTD/svg10.dtd">
<svg version="1.0" xmlns="http://www.w3.org/2000/svg"
 width="500.000000pt" height="500.000000pt" viewBox="0 0 500.000000 500.000000"
 preserveAspectRatio="xMidYMid meet">

<g transform="translate(0.000000,500.000000) scale(0.100000,-0.100000)"
fill="#000000" stroke="none">
<path d="M1942 2890 c-50 -12 -107 -54 -126 -94 -23 -49 -30 -123 -17 -173 22
-80 64 -105 289 -172 121 -37 165 -101 147 -217 -8 -58 -55 -108 -115 -124
-61 -16 -194 -14 -275 5 -36 8 -68 15 -71 15 -2 0 -4 -11 -4 -25 0 -32 19 -40
136 -54 166 -20 293 9 348 81 34 46 49 126 36 196 -19 102 -68 141 -245 192
-129 37 -169 59 -184 102 -28 81 -1 168 63 201 62 32 228 32 312 0 12 -5 15 0
12 23 -3 25 -9 31 -48 41 -51 13 -208 15 -258 3z"/>
<path d="M2664 2887 c-74 -19 -115 -46 -151 -101 -40 -58 -51 -94 -65 -214
-20 -157 8 -335 66 -422 52 -79 204 -122 349 -100 133 20 203 77 243 196 27
84 28 348 0 446 -23 85 -74 146 -148 178 -65 28 -215 37 -294 17z m261 -61
c108 -45 145 -137 145 -359 0 -229 -46 -324 -174 -358 -59 -16 -179 -13 -236
6 -64 21 -114 76 -137 152 -14 45 -18 91 -18 203 1 247 48 341 187 370 61 13
186 5 233 -14z"/>
<path d="M4430 2890 c-64 -14 -145 -56 -176 -93 -68 -80 -101 -215 -91 -377
17 -272 118 -373 372 -374 137 0 231 19 239 47 3 12 4 103 3 202 l-2 180 -122
3 -123 3 0 -26 c0 -25 0 -25 95 -25 l96 0 -3 -157 -3 -157 -35 -9 c-19 -4 -78
-8 -130 -9 -236 -4 -330 101 -330 368 0 159 44 279 122 331 75 50 213 65 343
38 87 -19 82 -19 81 7 -2 37 -47 51 -176 54 -63 2 -135 -1 -160 -6z"/>
<path d="M380 2678 c-107 -275 -231 -600 -233 -613 -3 -13 42 -15 51 -2 4 6
30 70 58 142 l50 130 176 2 c97 1 184 0 194 -3 14 -4 33 -43 70 -142 47 -125
53 -137 77 -140 18 -2 27 1 27 11 0 14 -78 225 -238 642 l-69 180 -40 3 -40 3
-83 -213z m154 85 c88 -236 136 -367 136 -374 0 -4 -76 -8 -170 -8 -95 0 -170
4 -170 9 0 19 163 440 171 440 4 0 19 -30 33 -67z"/>
<path d="M975 2877 c-3 -6 -4 -194 -3 -417 l3 -405 195 -3 c226 -3 240 -1 240
33 l0 25 -190 0 -190 0 0 390 0 390 -25 0 c-14 0 -28 -6 -30 -13z"/>
<path d="M1540 2476 c0 -405 0 -415 20 -421 11 -3 24 -3 30 0 6 4 10 153 10
421 l0 414 -30 0 -30 0 0 -414z"/>
<path d="M3330 2477 c0 -360 2 -416 15 -421 45 -17 45 -16 47 390 l3 384 251
-387 c241 -373 251 -388 282 -389 l32 -1 0 418 0 419 -25 0 -25 0 0 -366 c0
-229 -4 -364 -10 -362 -5 2 -114 165 -243 363 l-234 360 -47 3 -46 3 0 -414z"/>
</g>
</svg>
